<svg xmlns="http://www.w3.org/2000/svg" width="32" height="29.333" viewBox="0 0 32 29.333">
  <path id="icon_computer_32px" d="M25.333,1H6.667A6.675,6.675,0,0,0,0,7.667V18.333A6.675,6.675,0,0,0,6.667,25h8v2.667H9.333a1.333,1.333,0,0,0,0,2.667H22.667a1.333,1.333,0,0,0,0-2.667H17.333V25h8A6.675,6.675,0,0,0,32,18.333V7.667A6.675,6.675,0,0,0,25.333,1ZM6.667,3.667H25.333a4,4,0,0,1,4,4V17H2.667V7.667a4,4,0,0,1,4-4ZM25.333,22.333H6.667a4,4,0,0,1-3.755-2.667H29.088A4,4,0,0,1,25.333,22.333Z" transform="translate(0 -1)" fill="#586dba"/>
</svg>
