<svg xmlns="http://www.w3.org/2000/svg" width="25" height="25" viewBox="0 0 25 25">
  <g id="icon_download_24px" transform="translate(0.5 0.5)">
    <path id="icon_download_24px-2" data-name="icon_download_24px" d="M-832.48,462.709a4.628,4.628,0,0,1-4.617-4.628V456.1a1,1,0,0,1,1-1,1,1,0,0,1,1,1v1.984a2.628,2.628,0,0,0,2.622,2.628h14.767a2.627,2.627,0,0,0,2.622-2.628V456.1a1,1,0,0,1,1-1,1,1,0,0,1,1,1v1.984a4.627,4.627,0,0,1-4.616,4.628Zm7.4-7.665h-.012a.98.98,0,0,1-.729-.328l-4.61-4.624a1,1,0,0,1,0-1.415,1,1,0,0,1,1.409,0l2.93,2.94V439.709a1,1,0,0,1,1-1,1,1,0,0,1,1,1v11.922l2.929-2.953a.994.994,0,0,1,1.409,0,1,1,0,0,1,0,1.414l-4.62,4.661a1,1,0,0,1-.706.293Z" transform="translate(837.097 -438.709)" fill="#586dba" stroke="rgba(0,0,0,0)" stroke-width="1"/>
  </g>
</svg>
