<svg xmlns="http://www.w3.org/2000/svg" width="17.175" height="17.137" viewBox="0 0 17.175 17.137">
  <g id="icon_edit_16px" transform="translate(0.5 0.636)">
    <path id="icon_edit_16px-2" data-name="icon_edit_16px" d="M-6318.455-268a3.555,3.555,0,0,1-3.546-3.554v-8.893a3.555,3.555,0,0,1,3.546-3.554h5.66a1,1,0,0,1,.993,1,1,1,0,0,1-.993,1h-5.66a1.561,1.561,0,0,0-1.558,1.561v8.893a1.561,1.561,0,0,0,1.558,1.563h6v-2.191a2.277,2.277,0,0,1,2.271-2.277H-6308v-2.753a.994.994,0,0,1,.993-.995,1,1,0,0,1,.993.995v2.9a6.31,6.31,0,0,1-6.3,6.31Zm7.987-4.182v1.764a4.325,4.325,0,0,0,2.045-2.05h-1.761A.284.284,0,0,0-6310.467-272.182Zm-7.43,1.088a.994.994,0,0,1-.99-.995,5.189,5.189,0,0,1,1.167-3.511l7.72-7.74a2.324,2.324,0,0,1,3.156-.084.882.882,0,0,1,.14.117,2.342,2.342,0,0,1,.046,3.3l-7.72,7.738a5.18,5.18,0,0,1-3.5,1.171Zm9.3-10.838-7.721,7.74a2.332,2.332,0,0,0-.447.971,2.318,2.318,0,0,0,.979-.451l7.722-7.74a.276.276,0,0,0,.078-.209.411.411,0,0,0-.071-.216c-.019-.016-.035-.032-.053-.049a.405.405,0,0,0-.277-.124h-.008A.279.279,0,0,0-6308.6-281.932Z" transform="translate(6322 284.001)" fill="#586dba" stroke="rgba(0,0,0,0)" stroke-width="1"/>
  </g>
</svg>
