<svg xmlns="http://www.w3.org/2000/svg" width="25" height="25" viewBox="0 0 25 25">
  <g id="icon_help_24px" transform="translate(0.5 0.5)">
    <path id="icon_help_24px-2" data-name="icon_help_24px" d="M-749.516,331.576a12,12,0,0,1,12-12,12,12,0,0,1,12,12,12,12,0,0,1-12,12A12,12,0,0,1-749.516,331.576Zm2.25,0a9.761,9.761,0,0,0,9.751,9.75,9.761,9.761,0,0,0,9.75-9.75,9.761,9.761,0,0,0-9.75-9.751A9.762,9.762,0,0,0-747.266,331.576Zm8.609,6.484a1.63,1.63,0,0,1-.187-.233,1.607,1.607,0,0,1-.136-.255,1.952,1.952,0,0,1-.09-.285,1.878,1.878,0,0,1-.03-.292,1.913,1.913,0,0,1,.03-.293,1.908,1.908,0,0,1,.09-.276,1.456,1.456,0,0,1,.136-.264,1.726,1.726,0,0,1,.187-.231,1.509,1.509,0,0,1,1.35-.4,1.247,1.247,0,0,1,.285.082,1.685,1.685,0,0,1,.255.143,1.56,1.56,0,0,1,.232.18,1.739,1.739,0,0,1,.18.231,1.131,1.131,0,0,1,.143.264,1.186,1.186,0,0,1,.082.276,1.3,1.3,0,0,1,.03.293,1.277,1.277,0,0,1-.03.292,1.231,1.231,0,0,1-.082.285,1.21,1.21,0,0,1-.143.255,1.642,1.642,0,0,1-.18.233,1.762,1.762,0,0,1-.232.18,1.682,1.682,0,0,1-.255.142,1.2,1.2,0,0,1-.285.083,1.294,1.294,0,0,1-.293.031A1.511,1.511,0,0,1-738.658,338.061Zm-.066-5.807v-.714a1.125,1.125,0,0,1,1.125-1.125,1.878,1.878,0,0,0,1.875-1.876,1.877,1.877,0,0,0-1.875-1.875,1.877,1.877,0,0,0-1.772,1.259,1.125,1.125,0,0,1-1.431.694,1.124,1.124,0,0,1-.694-1.432,4.128,4.128,0,0,1,3.9-2.771,4.129,4.129,0,0,1,4.125,4.125,4.133,4.133,0,0,1-3.031,3.978,1.126,1.126,0,0,1-1.094.861A1.125,1.125,0,0,1-738.724,332.254Z" transform="translate(749.516 -319.576)" fill="#586dba" stroke="rgba(0,0,0,0)" stroke-width="1"/>
  </g>
</svg>
