<svg xmlns="http://www.w3.org/2000/svg" width="18" height="18" viewBox="0 0 18 18">
  <g id="icon_info_24px" transform="translate(0)">
    <path id="icon_info_24px-2" data-name="icon_info_24px" d="M-1907,18a8.94,8.94,0,0,1-6.364-2.636A8.942,8.942,0,0,1-1916,9a8.941,8.941,0,0,1,2.636-6.364A8.94,8.94,0,0,1-1907,0a8.942,8.942,0,0,1,6.364,2.636A8.94,8.94,0,0,1-1898,9a8.941,8.941,0,0,1-2.636,6.364A8.942,8.942,0,0,1-1907,18Zm-.061-6.059a1.128,1.128,0,0,0-.8.325,1.3,1.3,0,0,0-.14.173,1.084,1.084,0,0,0-.1.2,1.431,1.431,0,0,0-.068.207,1.408,1.408,0,0,0-.022.22,1.387,1.387,0,0,0,.022.219,1.454,1.454,0,0,0,.068.214,1.2,1.2,0,0,0,.1.191,1.218,1.218,0,0,0,.14.175,1.128,1.128,0,0,0,.792.327.968.968,0,0,0,.22-.023.894.894,0,0,0,.214-.062,1.184,1.184,0,0,0,.179-.1l.012-.008a1.315,1.315,0,0,0,.174-.135,1.234,1.234,0,0,0,.135-.175.9.9,0,0,0,.107-.191.918.918,0,0,0,.061-.214.956.956,0,0,0,.022-.219.959.959,0,0,0-.022-.22.889.889,0,0,0-.061-.207.845.845,0,0,0-.107-.2,1.29,1.29,0,0,0-.135-.173,1.172,1.172,0,0,0-.174-.135,1.272,1.272,0,0,0-.191-.107.93.93,0,0,0-.214-.061A1.1,1.1,0,0,0-1907.061,11.941Zm0-6.624a1.408,1.408,0,0,1,1.406,1.406,1.408,1.408,0,0,1-1.406,1.407.845.845,0,0,0-.844.844v.535a.845.845,0,0,0,.844.844.841.841,0,0,0,.82-.646,3.1,3.1,0,0,0,2.273-2.983,3.1,3.1,0,0,0-3.094-3.093,3.094,3.094,0,0,0-2.923,2.078.837.837,0,0,0,.037.645.839.839,0,0,0,.483.429.837.837,0,0,0,.276.047.845.845,0,0,0,.8-.567A1.408,1.408,0,0,1-1907.062,5.317Z" transform="translate(1916 0)" fill="#d5daee"/>
  </g>
</svg>
