<svg id="picture_1_" data-name="picture (1)" xmlns="http://www.w3.org/2000/svg" width="16" height="16" viewBox="0 0 16 16">
  <path id="Path_84" data-name="Path 84" d="M13,0H3A3,3,0,0,0,0,3V13a3,3,0,0,0,3,3H13a3,3,0,0,0,3-3V3A3,3,0,0,0,13,0ZM3,2H13a1,1,0,0,1,1,1V13a1,1,0,0,1-.293.707L7.885,7.885a2.667,2.667,0,0,0-3.771,0L2,10V3A1,1,0,0,1,3,2Z" fill="#d5daee"/>
  <ellipse id="Ellipse_8" data-name="Ellipse 8" cx="2.001" cy="2.001" rx="2.001" ry="2.001" transform="translate(9.004 3.001)" fill="#d5daee"/>
</svg>
