<svg xmlns="http://www.w3.org/2000/svg" width="21.333" height="32" viewBox="0 0 21.333 32">
  <path id="icon_smartphone_32px" d="M-2414.667-747a6.674,6.674,0,0,1-6.666-6.666v-18.667a6.674,6.674,0,0,1,6.666-6.667h8a6.675,6.675,0,0,1,6.667,6.667v18.667a6.674,6.674,0,0,1-6.667,6.666Zm-4-6.666a4,4,0,0,0,4,4h8a4,4,0,0,0,4-4V-755h-16Zm0-18.667v14.666h16v-14.666a4,4,0,0,0-4-4h-8A4,4,0,0,0-2418.666-772.333Zm6.666,20a1.333,1.333,0,0,1,1.333-1.333,1.333,1.333,0,0,1,1.334,1.333,1.334,1.334,0,0,1-1.334,1.334A1.334,1.334,0,0,1-2412-752.333Z" transform="translate(2421.333 779)" fill="#586dba"/>
</svg>
