<svg id="sparkcode_logo" xmlns="http://www.w3.org/2000/svg" width="199.91" height="40.113" viewBox="0 0 199.91 40.113">
  <path id="Path_1" data-name="Path 1" d="M4049.4,783.117a12.115,12.115,0,0,1-4.352-.787,8.385,8.385,0,0,1-3.222-2.035l.683-1.129a8.048,8.048,0,0,0,2.955,1.886,10.6,10.6,0,0,0,3.906.728,7.451,7.451,0,0,0,4.485-1.129,3.5,3.5,0,0,0,1.515-2.94,3.072,3.072,0,0,0-.8-2.228,5.3,5.3,0,0,0-1.99-1.277,27.347,27.347,0,0,0-3.208-.921,31.321,31.321,0,0,1-3.668-1.1,5.854,5.854,0,0,1-2.346-1.648,4.4,4.4,0,0,1-.965-2.985,5.076,5.076,0,0,1,.8-2.777,5.448,5.448,0,0,1,2.45-2,10.023,10.023,0,0,1,4.114-.742,11.6,11.6,0,0,1,3.386.5,9.965,9.965,0,0,1,2.881,1.366l-.564,1.218a9.617,9.617,0,0,0-2.748-1.307,10.341,10.341,0,0,0-2.955-.446,7,7,0,0,0-4.366,1.158,3.632,3.632,0,0,0-1.485,3,3.073,3.073,0,0,0,.8,2.228,5.3,5.3,0,0,0,1.99,1.277,30.122,30.122,0,0,0,3.238.95,30.356,30.356,0,0,1,3.653,1.1,6.007,6.007,0,0,1,2.332,1.619,4.239,4.239,0,0,1,.965,2.926,4.937,4.937,0,0,1-.816,2.762,5.556,5.556,0,0,1-2.51,1.99,10.341,10.341,0,0,1-4.158.742Zm18.778-15.771a7.712,7.712,0,0,1,3.921,1.01,7.228,7.228,0,0,1,2.747,2.792,8.2,8.2,0,0,1,1,4.069,8.289,8.289,0,0,1-1,4.084,7.1,7.1,0,0,1-2.747,2.792,7.8,7.8,0,0,1-3.921,1,7.262,7.262,0,0,1-3.712-.966,6.689,6.689,0,0,1-2.584-2.688v13.155H4060.4V767.464h1.425v3.653a6.765,6.765,0,0,1,2.6-2.777A7.227,7.227,0,0,1,4068.182,767.345Zm-.089,14.405a6.248,6.248,0,0,0,3.208-.832,5.936,5.936,0,0,0,2.243-2.317,7.425,7.425,0,0,0,0-6.772,5.936,5.936,0,0,0-2.243-2.317,6.246,6.246,0,0,0-3.208-.832,6.167,6.167,0,0,0-3.193.832,5.969,5.969,0,0,0-2.228,2.317,7.425,7.425,0,0,0,0,6.772,5.969,5.969,0,0,0,2.228,2.317A6.17,6.17,0,0,0,4068.093,781.751Zm16.373-14.405a6.17,6.17,0,0,1,4.425,1.47,5.69,5.69,0,0,1,1.544,4.321v9.831h-1.426v-2.762a5.159,5.159,0,0,1-2.168,2.124,7.19,7.19,0,0,1-3.416.758,6.294,6.294,0,0,1-4.084-1.218,4.211,4.211,0,0,1-.119-6.341,6.634,6.634,0,0,1,4.411-1.2h5.316v-1.247a4.366,4.366,0,0,0-1.173-3.3,4.761,4.761,0,0,0-3.43-1.128,8.266,8.266,0,0,0-2.955.535,7.414,7.414,0,0,0-2.391,1.426l-.742-1.069a8.245,8.245,0,0,1,2.792-1.619,10.142,10.142,0,0,1,3.416-.579Zm-.832,14.524a5.828,5.828,0,0,0,3.282-.891,5.418,5.418,0,0,0,2.035-2.584v-2.911h-5.287a5.258,5.258,0,0,0-3.311.832,2.783,2.783,0,0,0-1.025,2.287,2.864,2.864,0,0,0,1.128,2.391,5.079,5.079,0,0,0,3.178.876Zm13.195-11.019a5.36,5.36,0,0,1,2.228-2.6,7.048,7.048,0,0,1,3.683-.906V768.8l-.357-.03a5.154,5.154,0,0,0-4.039,1.619,6.49,6.49,0,0,0-1.456,4.5v8.079H4095.4v-15.5h1.426Zm14.382,3.831-4.04,3.683v4.6h-1.484V760.93h1.484v15.593l9.921-9.059h1.9l-6.684,6.267,7.337,9.237H4117.8l-6.593-8.287Z" transform="translate(-3996.926 -752.476)" fill="#586dba"/>
  <path id="Path_2" data-name="Path 2" d="M11430.612,784.482a11.936,11.936,0,0,1-5.745-1.381,10.3,10.3,0,0,1-4.036-3.829,11.161,11.161,0,0,1,0-11.072,10.3,10.3,0,0,1,4.036-3.829,12.884,12.884,0,0,1,10.656-.431,9.788,9.788,0,0,1,3.667,2.731l-3.087,2.85a6.64,6.64,0,0,0-5.225-2.434,6.934,6.934,0,0,0-3.443.846,6.02,6.02,0,0,0-2.36,2.36,7.441,7.441,0,0,0,0,6.887,6.02,6.02,0,0,0,2.36,2.36,6.936,6.936,0,0,0,3.443.846,6.608,6.608,0,0,0,5.225-2.464l3.087,2.85a9.643,9.643,0,0,1-3.681,2.761A12.218,12.218,0,0,1,11430.612,784.482Zm61.793-8.282q0,.089-.09,1.247h-12.081a3.761,3.761,0,0,0,1.545,2.345,5.109,5.109,0,0,0,3.027.861,6.139,6.139,0,0,0,2.212-.371,5.368,5.368,0,0,0,1.795-1.172l2.464,2.671q-2.256,2.582-6.59,2.582a10.422,10.422,0,0,1-4.779-1.054,7.728,7.728,0,0,1-3.206-2.924,8.066,8.066,0,0,1-1.127-4.245,8.169,8.169,0,0,1,1.112-4.23,7.809,7.809,0,0,1,3.059-2.939,9.464,9.464,0,0,1,8.593-.044,7.373,7.373,0,0,1,2.983,2.894,8.637,8.637,0,0,1,1.083,4.378Zm-8.281-4.779a3.991,3.991,0,0,0-2.643.891,3.792,3.792,0,0,0-1.306,2.434h7.866a3.835,3.835,0,0,0-1.306-2.419A3.907,3.907,0,0,0,11484.124,771.421Zm-35.9,12.942a9.573,9.573,0,0,1-4.526-1.054,7.838,7.838,0,0,1-3.132-2.924,8.552,8.552,0,0,1,0-8.49,7.84,7.84,0,0,1,3.132-2.924,10.215,10.215,0,0,1,9.037,0,7.854,7.854,0,0,1,3.118,2.924,8.558,8.558,0,0,1,0,8.49,7.852,7.852,0,0,1-3.118,2.924A9.479,9.479,0,0,1,11448.222,784.363Zm0-3.8a3.858,3.858,0,0,0,2.924-1.2,5.111,5.111,0,0,0,0-6.442,3.859,3.859,0,0,0-2.924-1.2,3.9,3.9,0,0,0-2.938,1.2,5.058,5.058,0,0,0,0,6.442A3.9,3.9,0,0,0,11448.222,780.564Zm26.634-18.464v22.026h-4.423v-1.841a6.106,6.106,0,0,1-4.986,2.078,8.3,8.3,0,0,1-4.083-1.009,7.224,7.224,0,0,1-2.863-2.88,9.55,9.55,0,0,1,0-8.668,7.223,7.223,0,0,1,2.863-2.879,8.3,8.3,0,0,1,4.083-1.009,6.072,6.072,0,0,1,4.777,1.929V762.1Zm-8.608,18.464a3.869,3.869,0,0,0,2.909-1.2,5.064,5.064,0,0,0,0-6.442,4.157,4.157,0,0,0-5.848,0,5.058,5.058,0,0,0,0,6.442A3.9,3.9,0,0,0,11466.247,780.564Z" transform="translate(-11292.495 -753.634)" fill="#586dba"/>
  <path id="Path_3" data-name="Path 3" d="M18.361,16.891c-.049-.03-.1-.058-.148-.086l-.8-.46.014-.072c.146-.75.287-1.476.431-2.2a29.633,29.633,0,0,0,.43-3.295,17.246,17.246,0,0,0-.029-3.4,9.2,9.2,0,0,0-1.24-3.98,4.283,4.283,0,0,0-4.669-1.73C9.539,2.615,9.2,5.772,9.52,8.2a6.075,6.075,0,0,0-3.974-2.74A3.446,3.446,0,0,0,1.638,8.175a4.6,4.6,0,0,0,3.267,5.633c.126.033.253.061.382.084s.241.049.36.08a.748.748,0,0,1-.153,1.487.787.787,0,0,1-.114-.021,6.582,6.582,0,0,1-2.857-1.131A6.093,6.093,0,0,1,.787,6.327a4.84,4.84,0,0,1,3.218-2.3,5.642,5.642,0,0,1,4.07.711A6.138,6.138,0,0,1,12.205.174a5.722,5.722,0,0,1,6.381,2.918A10.544,10.544,0,0,1,19.709,6.74a16.361,16.361,0,0,1,.15,3.473,36.6,36.6,0,0,1-.771,5.48c-.1.43-.2.861-.324,1.39l-.008.036-.4-.228Z" transform="translate(0.019 -0.022)" fill="#70b3ff"/>
  <path id="Path_4" data-name="Path 4" d="M1626.635,641.711c.049-.03.1-.06.145-.092l.776-.495.057.046c.6.476,1.176.936,1.753,1.4a29.582,29.582,0,0,0,2.724,1.9,17.243,17.243,0,0,0,3.026,1.542,9.2,9.2,0,0,0,4.1.737,4.282,4.282,0,0,0,3.69-3.342c.462-2.931-2.18-4.693-4.485-5.528a6.075,6.075,0,0,0,4.265-2.26,3.446,3.446,0,0,0-.6-4.719,4.6,4.6,0,0,0-6.5.3c-.087.1-.171.2-.251.3s-.155.191-.237.282a.748.748,0,0,1-1.249-.822.8.8,0,0,1,.071-.091,6.58,6.58,0,0,1,2.323-2.012A6.093,6.093,0,0,1,1644.12,631a4.84,4.84,0,0,1,.551,3.915,5.642,5.642,0,0,1-2.51,3.282,6.137,6.137,0,0,1,2.144,5.771,5.722,5.722,0,0,1-5.535,4.312,10.546,10.546,0,0,1-3.755-.688,16.343,16.343,0,0,1-3.15-1.471,36.6,36.6,0,0,1-4.5-3.214l-1.083-.929-.028-.024.385-.245Z" transform="translate(-1608.183 -621.219)" fill="#586dba"/>
  <path id="Path_5" data-name="Path 5" d="M204.052,1712.636c0,.057,0,.115,0,.172l.011.92-.069.025c-.72.257-1.415.506-2.113.752a29.656,29.656,0,0,0-3.053,1.311,17.242,17.242,0,0,0-2.907,1.757,9.2,9.2,0,0,0-2.79,3.1,4.283,4.283,0,0,0,.894,4.9c2.247,1.938,5.137.623,7.062-.9a6.076,6.076,0,0,0-.33,4.816,3.446,3.446,0,0,0,4.327,1.977,4.6,4.6,0,0,0,3.178-5.683c-.036-.125-.076-.249-.123-.371s-.081-.232-.115-.35a.748.748,0,0,1,1.357-.627.781.781,0,0,1,.04.108,6.582,6.582,0,0,1,.484,3.034,6.094,6.094,0,0,1-5.978,5.565,4.84,4.84,0,0,1-3.617-1.6,5.643,5.643,0,0,1-1.465-3.864,6.137,6.137,0,0,1-6.034-1.223,5.722,5.722,0,0,1-.745-6.977,10.542,10.542,0,0,1,2.564-2.827,16.333,16.333,0,0,1,2.911-1.9,36.612,36.612,0,0,1,5.106-2.132l1.361-.43.035-.011.005.457Z" transform="translate(-189.09 -1693.158)" fill="#586dba"/>
</svg>
