<svg xmlns="http://www.w3.org/2000/svg" width="32" height="16.71" viewBox="0 0 32 16.71">
  <path id="icon_horizontal_32px" d="M23.693,0H14.568a3.8,3.8,0,0,0-1.891.516l-.005,0-.015.015a3.807,3.807,0,0,0-1.39,1.385l-.015.014,0,0a3.754,3.754,0,0,0-.518,1.883V12.9a3.821,3.821,0,0,0,3.83,3.813h9.125a3.8,3.8,0,0,0,1.891-.516l.005,0,.016-.015A3.822,3.822,0,0,0,26.994,14.8l.015-.016,0,0a3.77,3.77,0,0,0,.518-1.883V3.813A3.822,3.822,0,0,0,23.693,0m0,14.71H14.568A1.82,1.82,0,0,1,12.747,12.9V3.813a1.817,1.817,0,0,1,.036-.363L24.057,14.673a1.82,1.82,0,0,1-.364.037M14.2,2.037A1.819,1.819,0,0,1,14.568,2h9.125a1.819,1.819,0,0,1,1.821,1.813V12.9a1.8,1.8,0,0,1-.037.362ZM42.738,5.37a1,1,0,0,1-1,1h-10.6a1,1,0,1,1,0-2h10.6a1,1,0,0,1,1,1m-2.37,3.485a1,1,0,0,1-1.005,1h-8.28a1,1,0,1,1,0-2h8.28a1,1,0,0,1,1.005,1m0,3.485a1,1,0,0,1-1.005,1h-8.28a1,1,0,1,1,0-2h8.28a1,1,0,0,1,1.005,1" transform="translate(-10.738)" fill="#586dba"/>
</svg>
