<svg xmlns="http://www.w3.org/2000/svg" width="25.494" height="25.022" viewBox="0 0 25.494 25.022">
  <path id="icon_vertical_32px" d="M24.494,48.81H1a1,1,0,0,1,0-2H24.494a1,1,0,0,1,0,2m-1.567,2.78a1,1,0,0,0-1-1H3.568a1,1,0,0,0,0,2H21.927a1,1,0,0,0,1-1M21.366,31.381v9.611a3.813,3.813,0,0,1-3.813,3.813H7.942a3.813,3.813,0,0,1-3.813-3.813V31.381a3.813,3.813,0,0,1,3.813-3.813h9.611a3.813,3.813,0,0,1,3.813,3.813M7.942,29.568a1.8,1.8,0,0,0-.362.037l11.749,11.75a1.817,1.817,0,0,0,.037-.363V31.381a1.815,1.815,0,0,0-1.813-1.813Zm9.611,13.237a1.8,1.8,0,0,0,.362-.037L6.166,31.019a1.8,1.8,0,0,0-.037.362v9.611a1.815,1.815,0,0,0,1.813,1.813Z" transform="translate(0 -27.568)" fill="#586dba"/>
</svg>
